<?xml version="1.0" ?><svg viewBox="0 0 69.45 69.45" xmlns="http://www.w3.org/2000/svg"><defs><style>.cls-1{fill:#79d5d5;}.cls-2{fill:#fff;fill-rule:evenodd;}</style></defs><title/><g data-name="Layer 2" id="Layer_2"><g data-name="Layer 1" id="Layer_1-2"><circle class="cls-1" cx="34.72" cy="34.72" r="34.72"/><path class="cls-2" d="M32,44.88a1.72,1.72,0,0,1-.52,1.29l-1.59,1.36L15.44,34.05V28.77L31.33,43.59A1.89,1.89,0,0,1,32,44.88ZM54,29.15v4.91L36,51.27a1.35,1.35,0,0,1-1,.41,1.41,1.41,0,0,1-1-.41L32.4,49.79,54,29.15Zm-13.7,8.74-5,4.7L19.54,27.69a3.84,3.84,0,0,1,0-5.63l5-4.71,15.79,14.9a3.83,3.83,0,0,1,0,5.64Zm-2.94-13L42.56,20a4.41,4.41,0,0,1,6,0l5.36,5.06-8.17,7.72-3-2.82-5.36-5.06Zm20-.78L45.59,12.85l-.24-.23-.25.23L34.85,22.62l-9.17-8.7h0L24.51,13l-.23-.19-.23.21L12.12,24.11l-.1.09V35.39l.1.1L34.49,56.6l.24.23L35,56.6,57.33,35.49l.1-.09V24.22l-.1-.09Z"/></g></g></svg>