<?xml version="1.0" encoding="UTF-8" standalone="no"?>
<!-- Created with Inkscape (http://www.inkscape.org/) -->

<svg
   xmlns:dc="http://purl.org/dc/elements/1.1/"
   xmlns:cc="http://creativecommons.org/ns#"
   xmlns:rdf="http://www.w3.org/1999/02/22-rdf-syntax-ns#"
   xmlns:svg="http://www.w3.org/2000/svg"
   xmlns="http://www.w3.org/2000/svg"
   version="1.1"
   width="1103.75"
   height="667.92218"
   id="svg2">
  <defs
     id="defs4" />
  <metadata
     id="metadata7">
    <rdf:RDF>
      <cc:Work
         rdf:about="">
        <dc:format>image/svg+xml</dc:format>
        <dc:type
           rdf:resource="http://purl.org/dc/dcmitype/StillImage" />
        <dc:title></dc:title>
      </cc:Work>
    </rdf:RDF>
  </metadata>
  <g
     transform="translate(332,-275.39538)"
     id="layer1">
    <path
       d="m 552.04837,-0.53824 -84.85282,128.79445 169.20055,0 -84.34773,-128.79445"
       transform="translate(-332,275.93362)"
       id="path3012"
       style="fill:#cc9933;fill-opacity:1;stroke:none" />
    <path
       d="m 382.84781,256.54558 84.34774,-128.28937 84.85282,128.28937 -169.20056,0"
       transform="translate(-332,275.93362)"
       id="path3014"
       style="fill:#cc9933;fill-opacity:1;stroke:none" />
    <path
       d="m 552.04837,256.54558 169.70562,0 -85.35789,-128.28937 z"
       transform="translate(-332,275.93362)"
       id="path3016"
       style="fill:#cc9933;fill-opacity:1;stroke:none" />
    <path
       d="m 0,39.28571 41.428571,125 L 330,207.85714 l 0,30.71429 -259.285714,28.57143 51.428574,100.71428 215,-80.71428 13.57143,26.42857 -164.28572,124.28571 70.71429,50 120,-133.57143 18.57143,17.85715 -58.57143,139.28571 70.71428,14.28572 25,-127.14286 c 22.24624,3.02664 54.9187,0 54.03638,-30.71429 -0.42999,-14.96825 -7.40995,-33.3174 -33.23439,-41.28517 C 342.22776,292.19134 365,152.85714 400,95 358.16417,128.25621 355.18818,145.04333 343.57143,160.71429 324.46429,155.625 0,39.28571 0,39.28571 z"
       transform="translate(-332,275.93362)"
       id="path3082"
       style="fill:#cc9933;fill-opacity:1;stroke:none" />
    <path
       d="m 771.75,315.21933 -41.42857,125 -288.57143,43.57143 0,30.71429 259.28571,28.57143 -51.42857,100.71428 -215,-80.71428 -13.57143,26.42857 164.28572,124.28571 -70.71429,50 -120,-133.57143 -18.57143,17.85715 58.57143,139.28571 -70.71428,14.28572 -25,-127.14286 c -22.24624,3.02664 -54.9187,0 -54.03638,-30.71429 0.42999,-14.96825 7.40995,-33.3174 33.23439,-41.28517 C 429.52224,568.12496 406.75,428.79076 371.75,370.93362 c 41.83583,33.25621 44.81182,50.04333 56.42857,65.71429 C 447.28571,431.55862 771.75,315.21933 771.75,315.21933 z"
       id="path3082-1"
       style="fill:#cc9933;fill-opacity:1;stroke:none" />
    <path
       d="m 452.5,601.78571 -11.78571,35.35715 45.89285,-43.57143 c 0,0 4.82143,-9.28572 -5.17857,-13.92857 -11.20536,0 -14.23302,0 -16.59598,0 -3.22545,-0.61384 -0.74777,-6.46206 -0.74777,-6.46206 0,0 23.02443,-37.12022 35.29018,-57.10937 3.18877,-14.86245 -20.01448,-28.21429 -32.17945,-14.73214 -14.69555,29.59205 -34.51697,78.30357 -37.55269,78.30357 -3.03572,0 -86.07143,0 -86.07143,0 0,0 -16.42857,2.94643 -6.42857,16.07143 10,13.125 66.42857,54.64285 66.42857,54.64285 l -21.51786,-48.57143 z"
       transform="translate(-332,275.93362)"
       id="path3120"
       style="fill:#cc9933;fill-opacity:1;stroke:none" />
    <path
       d="m 319.30756,877.71933 11.78571,35.35715 -45.89285,-43.57143 c 0,0 -4.82143,-9.28572 5.17857,-13.92857 11.20536,0 14.23302,0 16.59598,0 3.22545,-0.61384 0.74777,-6.46206 0.74777,-6.46206 0,0 -23.02443,-37.12022 -35.29018,-57.10937 -3.18877,-14.86245 20.01448,-28.21429 32.17945,-14.73214 14.69555,29.59205 34.51697,78.30357 37.55269,78.30357 3.03572,0 86.07143,0 86.07143,0 0,0 16.42857,2.94643 6.42857,16.07143 -10,13.125 -66.42857,54.64285 -66.42857,54.64285 l 21.51786,-48.57143 z"
       id="path3120-7"
       style="fill:#cc9933;fill-opacity:1;stroke:none" />
    <path
       d="m 220.04837,572.1277 c -0.75761,15.15229 -20.97795,52.53004 -26.28125,58.09375 -4.25824,4.46734 -10.09946,13.56696 -21.96875,44.28125 -11.86928,30.71429 -6.96288,32.17316 -31.5625,50.15625 101.16438,46.5199 43.4375,93.71389 43.4375,104.5625 12.67027,32.02914 36.375,96.71875 36.375,96.71875 0,0 23.67348,-64.68961 36.34375,-96.71875 0,-10.84861 -57.72688,-58.0426 43.4375,-104.5625 -24.59962,-17.98309 -19.69322,-19.44196 -31.5625,-50.15625 -11.86929,-30.71429 -17.71051,-39.81391 -21.96875,-44.28125 -5.3033,-5.56371 -25.49239,-42.94146 -26.25,-58.09375 z"
       id="path3156"
       style="fill:#cc9933;fill-opacity:1;stroke:none" />
  </g>
</svg>
