<?xml version="1.0" encoding="iso-8859-1"?>
<!-- Generator: Adobe Illustrator 19.0.0, SVG Export Plug-In . SVG Version: 6.00 Build 0)  -->
<svg version="1.1" id="Layer_1" xmlns="http://www.w3.org/2000/svg" xmlns:xlink="http://www.w3.org/1999/xlink" x="0px" y="0px"
	 viewBox="0 0 512 512" style="enable-background:new 0 0 512 512;" xml:space="preserve">
<path style="fill:#57575C;" d="M499.016,74.436H391.691c-7.141,0-12.984,5.843-12.984,12.984v16.307
	c0,7.141,5.843,12.984,12.984,12.984h27.204c0.073,0.067-82.25,215.646-82.25,215.646l-44.351-99.742
	c0,0,58.236-115.591,58.445-115.906h12.278c7.141,0,12.984-5.843,12.984-12.984V87.421c0-7.141-5.843-12.984-12.984-12.984h-79.733
	c-7.141,0-12.984,5.843-12.984,12.984v16.307c0,7.141,5.843,12.984,12.984,12.984H294.4c-0.487,1.591-26.869,60.124-26.869,60.124
	s-25.048-56.115-26.649-60.124h2.788c7.143,0,12.984-5.843,12.984-12.984V87.421c0-7.141-5.841-12.984-12.984-12.984h-84.6
	c-7.141,0-12.984,5.843-12.984,12.984v16.307c0,7.141,5.843,12.984,12.984,12.984h11.329c2.207,3.292,58.122,125.827,62.394,136.184
	l-36.44,79.847c-20.919-48.777-71.073-166.367-88.067-211.911c-0.62-1.621-1.071-2.969-1.422-4.119h23.514
	c7.141,0,12.984-5.843,12.984-12.984V87.421c0-7.141-5.843-12.984-12.984-12.984H12.984C5.843,74.436,0,80.279,0,87.421v16.307
	c0,7.141,5.843,12.984,12.984,12.984h20.442c1.125,1.268,46.688,112.117,68.804,163.965c20.434,47.899,41.561,97.427,55.237,132.884
	c0.026,0.07,0.054,0.138,0.081,0.206c2.396,5.885,9.681,23.797,25.608,23.797c13.666,0,22.221-13.343,27.468-23.378
	c0.047-0.091,0.097-0.187,0.143-0.281c11.003-22.443,30.878-66.71,46.477-101.865c20.496,49.389,34.845,83.354,42.715,101.115
	c2.602,5.916,10.517,23.92,26.337,23.922h0.003c15.378,0,23.62-17.272,26.327-22.946c0.099-0.208,0.19-0.417,0.279-0.63
	c27.731-67.745,109.146-272.541,109.965-274.602c0.062-0.157,0.122-0.315,0.177-0.476c2.827-8.079,6.586-14.133,11.439-18.464
	c1.446-1.277,3.266-2.352,5.4-3.249h19.129c7.141,0,12.984-5.843,12.984-12.984V87.421C512,80.279,506.157,74.436,499.016,74.436z"
	/>
<g>
</g>
<g>
</g>
<g>
</g>
<g>
</g>
<g>
</g>
<g>
</g>
<g>
</g>
<g>
</g>
<g>
</g>
<g>
</g>
<g>
</g>
<g>
</g>
<g>
</g>
<g>
</g>
<g>
</g>
</svg>
