<?xml version="1.0" encoding="iso-8859-1"?>
<!-- Generator: Adobe Illustrator 19.0.0, SVG Export Plug-In . SVG Version: 6.00 Build 0)  -->
<svg version="1.1" id="Capa_1" xmlns="http://www.w3.org/2000/svg" xmlns:xlink="http://www.w3.org/1999/xlink" x="0px" y="0px"
	 viewBox="0 0 383.993 383.993" style="enable-background:new 0 0 383.993 383.993;" xml:space="preserve">
<g>
	<g>
		<path d="M382.309,360.848l-87.912-176l-87.912-176C203.781,3.424,198.245,0,192.181,0h-0.008c-6.056,0-11.592,3.424-14.304,8.832
			l-88.088,176l-88.088,176c-2.488,4.96-2.216,10.848,0.696,15.568c2.912,4.72,8.064,7.592,13.608,7.592h176.168h0.008h175.824
			c5.544,0,10.696-2.864,13.608-7.584C384.517,371.688,384.781,365.808,382.309,360.848z M192.157,51.768l62.048,124.224H129.981
			L192.157,51.768z M41.893,351.992l62.192-124.248l62.184,124.248H41.893z M192.141,332.2l-49.824-99.552l-12.336-24.656h124.144
			L192.141,332.2z M218.037,351.992l62.008-124.264l62.08,124.264H218.037z"/>
	</g>
</g>
<g>
</g>
<g>
</g>
<g>
</g>
<g>
</g>
<g>
</g>
<g>
</g>
<g>
</g>
<g>
</g>
<g>
</g>
<g>
</g>
<g>
</g>
<g>
</g>
<g>
</g>
<g>
</g>
<g>
</g>
</svg>
